# xmcd
#
# Track frame offsets:
#	150
#	46137
#	88491
#	137622
#	197086
#	253987
#	299821
#
# Disc length: 4022 seconds
#
# Revision: 1
# Processed by: cddbd v1.5.2PL0 Copyright (c) Steve Scherf et al.
# Submitted via: audiograbber 1.83.01
#
DISCID=710fb407
DTITLE=Grateful Dead - 92-12-11 Oakland Coliseum Arena, Oakland CA
DYEAR=1900
DGENRE=
TTITLE0=Iko Iko
TTITLE1=Looks Like Rain
TTITLE2=Eyes Of The World
TTITLE3=Corinna
TTITLE4=Drums
TTITLE5=Space
TTITLE6=The Wheel begins
EXTD=
EXTT0=
EXTT1=
EXTT2=
EXTT3=
EXTT4=
EXTT5=
EXTT6=
PLAYORDER=
